<?xml version="1.0" standalone="no"?>
<!DOCTYPE svg>
<svg version="1.0" xmlns="http://www.w3.org/2000/svg"
  width="200" height="200" viewBox="0 0 200 200"
  preserveAspectRatio="xMidYMid meet">

  <g transform="translate(0.000000,200.000000) scale(0.100000,-0.100000)"
    fill="#00D8FF" stroke="none">
    <path
      d="M990 1822 c0 -5 -17 -34 -37 -63 -20 -30 -53 -82 -73 -115 -19 -34
-79 -128 -132 -208 -90 -134 -215 -333 -292 -464 -49 -83 -260 -397 -345 -513
-12 -17 -11 -21 9 -37 20 -16 53 -18 442 -17 347 0 417 -2 402 -13 -11 -7 -46
-33 -79 -57 -33 -25 -86 -64 -117 -88 -62 -46 -62 -46 -49 -66 7 -11 20 -8 67
16 119 59 499 255 503 259 11 11 -26 34 -57 34 -19 0 -134 20 -256 44 -285 57
-296 58 -296 41 0 -28 143 -104 197 -105 12 0 25 -5 29 -11 5 -8 -75 -11 -302
-8 -170 2 -315 5 -321 7 -20 6 2 47 137 267 68 110 146 241 175 292 29 50 71
115 93 145 22 29 74 110 115 180 41 69 97 152 123 185 27 32 64 82 83 111 18
28 36 52 40 52 9 0 55 -91 93 -184 19 -49 75 -145 146 -250 64 -94 156 -232
206 -306 101 -150 188 -265 265 -353 28 -32 61 -77 72 -98 21 -43 44 -58 60
-42 18 18 -23 83 -136 218 -58 70 -155 200 -215 288 -60 89 -152 225 -205 302
-90 130 -250 430 -280 525 -9 27 -18 36 -38 38 -15 2 -27 -1 -27 -6z m-81
-302 c-13 -16 -24 -28 -27 -26 -6 6 29 56 39 56 5 0 0 -13 -12 -30z" />
  </g>
</svg>